<svg id="Layer_1" data-name="Layer 1" xmlns="http://www.w3.org/2000/svg" viewBox="0 0 608.24 405.73"><defs><style>.cls-1{opacity:0.5;}.cls-2{fill:#fff;}</style></defs><title>AM_Logo_SVG</title><g class="cls-1"><path class="cls-2" d="M257.13,463.73H203L340.8,58H404L542.46,463.73h-56L432.3,295.17,392.57,178.39c-9-26.49-15-50.57-21.07-74h-1.2c-6,24.08-12.64,48.76-20.47,73.44L310.1,295.17Z" transform="translate(-202.95 -58)"/><path class="cls-2" d="M425.33,58h66.82l69.23,196.24c16.85,50,30.7,94.51,40.93,136.65h1.81c10.23-40.93,24.68-85.48,42.74-136.65L719.08,58H785.9l25.28,405.73H760L749.79,285.54c-3-56.58-6.62-124.61-6-175.17H742c-13.85,47.56-30.7,98.12-51.17,154.1L619.16,461.32H579.43L513.81,268.09c-19.26-57.19-35.52-109.56-47-157.71h-1.2Z" transform="translate(-202.95 -58)"/></g></svg>