<svg xmlns="http://www.w3.org/2000/svg" viewBox="0 0 156.44 161.5"><defs><style>.cls-1,.cls-3{fill:#fff;}.cls-2{opacity:0.8;}.cls-3{stroke:#fff;stroke-miterlimit:10;stroke-width:0.33px;}.cls-4{opacity:0.4;}</style></defs><title>AM-MyTimeToHeal_Transp_Logo@300</title><g id="Layer_2" data-name="Layer 2"><g id="face_side" data-name="face side"><path class="cls-1" d="M1.17,147.86H4a3.74,3.74,0,0,1,2.47.72,2.44,2.44,0,0,1,.86,2,2.49,2.49,0,0,1-.87,2,3.82,3.82,0,0,1-2.54.74H2v4.77H1.17Zm.79.66v4.12h1.9a3,3,0,0,0,1.94-.54,2.07,2.07,0,0,0,0-3A2.79,2.79,0,0,0,4,148.51Z" transform="translate(-0.74)"/><path class="cls-1" d="M11.95,151.78v.77a3.41,3.41,0,0,0-1.84-.69,1.6,1.6,0,0,0-1,.33,1,1,0,0,0-.42.81.93.93,0,0,0,.25.63,4.21,4.21,0,0,0,1.4.73,3.4,3.4,0,0,1,1.49.92,1.74,1.74,0,0,1,.35,1.06,1.66,1.66,0,0,1-.64,1.32,2.35,2.35,0,0,1-1.57.54,3.83,3.83,0,0,1-2-.61v-.7a4.72,4.72,0,0,0,2.11.61,1.55,1.55,0,0,0,1-.33,1,1,0,0,0,.4-.84,1,1,0,0,0-.26-.65,4.26,4.26,0,0,0-1.4-.75,3.6,3.6,0,0,1-1.48-.9A1.57,1.57,0,0,1,8,153a1.65,1.65,0,0,1,.63-1.3,2.29,2.29,0,0,1,1.54-.54A3.6,3.6,0,0,1,11.95,151.78Z" transform="translate(-0.74)"/><path class="cls-1" d="M18.65,151.34l-5,10.16h-.73l2.35-4.75-2.83-5.41h.75L15.6,156l2.32-4.69Z" transform="translate(-0.74)"/><path class="cls-1" d="M23.93,151.54v.8a4.4,4.4,0,0,0-1.75-.42,2.35,2.35,0,0,0-1.83.78,2.92,2.92,0,0,0-.7,2,2.83,2.83,0,0,0,.7,2,2.47,2.47,0,0,0,1.89.75,4.8,4.8,0,0,0,1.81-.39v.74a5.82,5.82,0,0,1-1.87.34,3.18,3.18,0,0,1-2.38-.93,3.37,3.37,0,0,1-.91-2.45,3.69,3.69,0,0,1,.92-2.59,3,3,0,0,1,2.34-1A5.81,5.81,0,0,1,23.93,151.54Z" transform="translate(-0.74)"/><path class="cls-1" d="M25.84,147.86v4.65h0a2.54,2.54,0,0,1,2.21-1.3,2.36,2.36,0,0,1,1.82.73,2.83,2.83,0,0,1,.68,2v4.11h-.72v-3.83q0-2.32-1.83-2.32a2.57,2.57,0,0,0-2.2,1.44v4.71h-.72v-10.2Z" transform="translate(-0.74)"/><path class="cls-1" d="M35.28,151.21a3.26,3.26,0,0,1,2.44,1,3.67,3.67,0,0,1,0,5,3.48,3.48,0,0,1-4.88,0,3.65,3.65,0,0,1,0-5A3.29,3.29,0,0,1,35.28,151.21Zm0,6.28a2.51,2.51,0,0,0,1.89-.79,3,3,0,0,0,0-4,2.5,2.5,0,0,0-1.89-.8,2.53,2.53,0,0,0-1.9.8,3,3,0,0,0,0,4A2.53,2.53,0,0,0,35.28,157.49Z" transform="translate(-0.74)"/><path class="cls-1" d="M41.28,149.11v2.23h1.88v.58H41.28v4a3.26,3.26,0,0,0,.16,1.27q.16.3.84.3a3,3,0,0,0,1.23-.33v.69a3.17,3.17,0,0,1-1.39.34,1.65,1.65,0,0,1-1.11-.38,1.31,1.31,0,0,1-.45-1.05v-4.83H38.75v-.58h1.81v-1.6l.49-.63Z" transform="translate(-0.74)"/><path class="cls-1" d="M44.89,147.86v4.65h0a2.54,2.54,0,0,1,2.21-1.3,2.36,2.36,0,0,1,1.82.73,2.83,2.83,0,0,1,.68,2v4.11h-.72v-3.83q0-2.32-1.83-2.32a2.57,2.57,0,0,0-2.2,1.44v4.71h-.72v-10.2Z" transform="translate(-0.74)"/><path class="cls-1" d="M56.94,154.45H51.64a2.82,2.82,0,0,0,0,.35,2.56,2.56,0,0,0,.8,1.91,2.63,2.63,0,0,0,1.9.78,3.91,3.91,0,0,0,2.5-1v.81a4.12,4.12,0,0,1-2.58.89,3.16,3.16,0,0,1-2.4-1,3.59,3.59,0,0,1-.95-2.56,3.5,3.5,0,0,1,.88-2.44,3,3,0,0,1,4.32-.09A3.23,3.23,0,0,1,56.94,154.45Zm-5.2-.58h4.35q-.38-2-2.13-2a2.13,2.13,0,0,0-1.43.52A2.52,2.52,0,0,0,51.74,153.87Z" transform="translate(-0.74)"/><path class="cls-1" d="M62.73,152l-.42.67a2.35,2.35,0,0,0-1.35-.77q-1,0-2.15,1.93v4.22h-.72v-6.72h.72v1.77h0q1.2-1.9,2.35-1.9A2.51,2.51,0,0,1,62.73,152Z" transform="translate(-0.74)"/><path class="cls-1" d="M68.5,156.89v.6a2.83,2.83,0,0,1-1.36.7.36.36,0,0,1-.34-.16,1.86,1.86,0,0,1-.14-.67,3.41,3.41,0,0,1-2.1.83,1.8,1.8,0,0,1-1.29-.5,1.6,1.6,0,0,1-.53-1.21,2,2,0,0,1,1-1.73,6.11,6.11,0,0,1,2.9-.73v-.85q0-1.37-1.49-1.37a3.44,3.44,0,0,0-2.05.85v-.74a4.1,4.1,0,0,1,2.17-.72,2.42,2.42,0,0,1,1.5.45,1.54,1.54,0,0,1,.59,1.3v4.18q0,.34.16.34A2.61,2.61,0,0,0,68.5,156.89Zm-1.84-.16v-2.1a4.14,4.14,0,0,0-2.29.49,1.57,1.57,0,0,0-.91,1.37,1,1,0,0,0,.38.79,1.42,1.42,0,0,0,.95.32A2.81,2.81,0,0,0,66.66,156.73Z" transform="translate(-0.74)"/><path class="cls-1" d="M69.95,151.34v.38a4.47,4.47,0,0,1,2-.51,3.14,3.14,0,0,1,2.37,1,3.71,3.71,0,0,1,0,5,3.15,3.15,0,0,1-2.37,1,4.49,4.49,0,0,1-2-.5v3.81h-.72V151.34Zm0,1.07V157a3.8,3.8,0,0,0,1.85.5,2.61,2.61,0,0,0,2-.76,2.72,2.72,0,0,0,.74-2,2.77,2.77,0,0,0-.79-2,2.68,2.68,0,0,0-2-.8A3.67,3.67,0,0,0,69.95,152.41Z" transform="translate(-0.74)"/><path class="cls-1" d="M81.65,151.34l-5,10.16h-.73l2.35-4.75-2.83-5.41h.75L78.59,156l2.32-4.69Z" transform="translate(-0.74)"/><path class="cls-1" d="M102.5,148.58v.86a7.72,7.72,0,0,0-3.64-1,4.29,4.29,0,0,0-3.18,1.29A4.41,4.41,0,0,0,94.41,153a4.32,4.32,0,0,0,1.29,3.22A4.48,4.48,0,0,0,99,157.46a7.82,7.82,0,0,0,3.63-1v.82a7.68,7.68,0,0,1-3.61,1,5.38,5.38,0,0,1-3.88-1.49,5.23,5.23,0,0,1,0-7.47,5.3,5.3,0,0,1,3.78-1.5A8.58,8.58,0,0,1,102.5,148.58Z" transform="translate(-0.74)"/><path class="cls-1" d="M106.7,151.21a3.26,3.26,0,0,1,2.44,1,3.67,3.67,0,0,1,0,5,3.48,3.48,0,0,1-4.88,0,3.65,3.65,0,0,1,0-5A3.29,3.29,0,0,1,106.7,151.21Zm0,6.28a2.51,2.51,0,0,0,1.89-.79,3,3,0,0,0,0-4,2.5,2.5,0,0,0-1.89-.8,2.53,2.53,0,0,0-1.9.8,3,3,0,0,0,0,4A2.53,2.53,0,0,0,106.7,157.49Z" transform="translate(-0.74)"/><path class="cls-1" d="M116.12,158.06v-1.11h0a3.15,3.15,0,0,1-1,1,2.48,2.48,0,0,1-1.25.28,2.44,2.44,0,0,1-1.79-.7,2.67,2.67,0,0,1-.71-2v-4.16h.72v4.15a2,2,0,0,0,.51,1.47,1.76,1.76,0,0,0,1.33.53,2.14,2.14,0,0,0,1.19-.32,3.58,3.58,0,0,0,1-1.11v-4.72h.72v6.72Z" transform="translate(-0.74)"/><path class="cls-1" d="M119.13,151.34v1.17h0a2.54,2.54,0,0,1,2.21-1.3,2.36,2.36,0,0,1,1.82.73,2.85,2.85,0,0,1,.68,2v4.1h-.72v-3.83q0-2.32-1.83-2.32a2.53,2.53,0,0,0-2.2,1.44v4.71h-.72v-6.72Z" transform="translate(-0.74)"/><path class="cls-1" d="M129.14,151.78v.77a3.41,3.41,0,0,0-1.84-.69,1.6,1.6,0,0,0-1,.33,1,1,0,0,0-.42.81.93.93,0,0,0,.25.63,4.21,4.21,0,0,0,1.4.73,3.4,3.4,0,0,1,1.49.92,1.74,1.74,0,0,1,.35,1.06,1.66,1.66,0,0,1-.64,1.32,2.35,2.35,0,0,1-1.57.54,3.83,3.83,0,0,1-2-.61v-.7a4.72,4.72,0,0,0,2.11.61,1.55,1.55,0,0,0,1-.33,1,1,0,0,0,.4-.84,1,1,0,0,0-.26-.65,4.26,4.26,0,0,0-1.4-.75,3.6,3.6,0,0,1-1.48-.9,1.57,1.57,0,0,1-.34-1,1.65,1.65,0,0,1,.63-1.3,2.29,2.29,0,0,1,1.54-.54A3.6,3.6,0,0,1,129.14,151.78Z" transform="translate(-0.74)"/><path class="cls-1" d="M136.17,154.45h-5.29a2.82,2.82,0,0,0,0,.35,2.56,2.56,0,0,0,.8,1.91,2.63,2.63,0,0,0,1.9.78,3.91,3.91,0,0,0,2.5-1v.81a4.12,4.12,0,0,1-2.58.89,3.16,3.16,0,0,1-2.4-1,3.59,3.59,0,0,1-.95-2.56,3.5,3.5,0,0,1,.88-2.44,3,3,0,0,1,4.32-.09A3.23,3.23,0,0,1,136.17,154.45Zm-5.2-.58h4.35q-.38-2-2.13-2a2.13,2.13,0,0,0-1.43.52A2.52,2.52,0,0,0,131,153.87Z" transform="translate(-0.74)"/><path class="cls-1" d="M138.15,147.86v10.2h-.72v-10.2Z" transform="translate(-0.74)"/><path class="cls-1" d="M140.66,147.86v10.2h-.72v-10.2Z" transform="translate(-0.74)"/><path class="cls-1" d="M143.17,147.86v1.23h-.72v-1.23Zm0,3.48v6.72h-.72v-6.72Z" transform="translate(-0.74)"/><path class="cls-1" d="M145.56,151.34v1.17h0a2.54,2.54,0,0,1,2.21-1.3,2.36,2.36,0,0,1,1.82.73,2.85,2.85,0,0,1,.68,2v4.1h-.72v-3.83q0-2.32-1.83-2.32a2.53,2.53,0,0,0-2.2,1.44v4.71h-.72v-6.72Z" transform="translate(-0.74)"/><path class="cls-1" d="M157.19,151.34v.58h-1.53a2.43,2.43,0,0,1,.93,1.78,2.19,2.19,0,0,1-.36,1.33,2.16,2.16,0,0,1-.86.71,8.78,8.78,0,0,1-1.33.44,2.93,2.93,0,0,0-1,.41.57.57,0,0,0-.21.44.53.53,0,0,0,.27.47,5,5,0,0,0,1.7.26,3.15,3.15,0,0,1,1.92.55,1.74,1.74,0,0,1-.3,2.68,5,5,0,0,1-4.39,0,1.49,1.49,0,0,1-.77-1.3q0-1.31,2-1.63v0q-1.09-.26-1.09-1t1.34-1.1v0a2.5,2.5,0,0,1-1.34-.87,2.32,2.32,0,0,1,.28-3.08,3,3,0,0,1,2.12-.67Zm-3,9.56a3.31,3.31,0,0,0,1.66-.36,1.07,1.07,0,0,0,.62-.94q0-1.18-2.14-1.18-2.44,0-2.44,1.24T154.21,160.9Zm-.1-5.38a1.81,1.81,0,0,0,1.8-1.8,1.71,1.71,0,0,0-.53-1.26,1.76,1.76,0,0,0-1.28-.52,1.75,1.75,0,0,0-1.77,1.75,1.79,1.79,0,0,0,.52,1.29A1.7,1.7,0,0,0,154.1,155.52Z" transform="translate(-0.74)"/><g class="cls-2"><path class="cls-1" d="M12,124.17l7.45-9.11H21v19.62H19.44v-17.4L12,126.45l-7.49-9.17v17.4H3V115.06H4.48Z" transform="translate(-0.74)"/><path class="cls-1" d="M34.23,121.76,24.56,141.3H23.15l4.52-9.13-5.45-10.41h1.45l4.69,9,4.47-9Z" transform="translate(-0.74)"/><path class="cls-1" d="M46.9,115.06v1.26H39.54v18.36H38V116.32H30.64v-1.26Z" transform="translate(-0.74)"/><path class="cls-1" d="M49.85,115.06v2.36H48.46v-2.36Zm0,6.7v12.92H48.46V121.76Z" transform="translate(-0.74)"/><path class="cls-1" d="M53.81,121.76V124h.06A4.7,4.7,0,0,1,58,121.51a4.26,4.26,0,0,1,4.17,3.1q1.83-3.1,4.5-3.1a4.08,4.08,0,0,1,3.25,1.43,5.63,5.63,0,0,1,1.24,3.81v7.94H69.75v-7.33a5.45,5.45,0,0,0-.89-3.29,2.91,2.91,0,0,0-2.49-1.2,3.2,3.2,0,0,0-2.08.72,8.62,8.62,0,0,0-1.83,2.3v8.81H61.09v-7.36a5.21,5.21,0,0,0-.92-3.31,3,3,0,0,0-2.46-1.16q-2.25,0-3.89,2.77v9.06H52.43V121.76Z" transform="translate(-0.74)"/><path class="cls-1" d="M84.53,127.74H74.35a5.39,5.39,0,0,0,0,.67,4.92,4.92,0,0,0,1.54,3.67,5.06,5.06,0,0,0,3.65,1.5,7.53,7.53,0,0,0,4.8-1.92v1.56a7.94,7.94,0,0,1-5,1.71A6.08,6.08,0,0,1,74.71,133a6.9,6.9,0,0,1-1.83-4.93,6.74,6.74,0,0,1,1.69-4.7,5.76,5.76,0,0,1,8.3-.18A6.2,6.2,0,0,1,84.53,127.74Zm-10-1.11H82.9q-.73-3.78-4.09-3.78a4.09,4.09,0,0,0-2.75,1A4.85,4.85,0,0,0,74.53,126.63Z" transform="translate(-0.74)"/><path class="cls-1" d="M97.79,115.06v1.26H90.43v18.36H88.9V116.32H81.54v-1.26Z" transform="translate(-0.74)"/><path class="cls-1" d="M99.38,121.51a6.27,6.27,0,0,1,4.69,1.92,7.06,7.06,0,0,1,0,9.59,6.7,6.7,0,0,1-9.38,0,7,7,0,0,1,0-9.59A6.32,6.32,0,0,1,99.38,121.51Zm0,12.08a4.83,4.83,0,0,0,3.64-1.52,5.74,5.74,0,0,0,0-7.66,4.81,4.81,0,0,0-3.63-1.55,4.86,4.86,0,0,0-3.66,1.53,5.75,5.75,0,0,0,0,7.68A4.87,4.87,0,0,0,99.38,133.59Z" transform="translate(-0.74)"/><path class="cls-1" d="M125.53,115.06v19.62H124v-9.3H110.91v9.3h-1.52V115.06h1.52v9.06H124v-9.06Z" transform="translate(-0.74)"/><path class="cls-1" d="M139.45,127.74H129.27a5.39,5.39,0,0,0,0,.67,4.92,4.92,0,0,0,1.54,3.67,5.06,5.06,0,0,0,3.65,1.5,7.53,7.53,0,0,0,4.8-1.92v1.56a7.94,7.94,0,0,1-5,1.71,6.08,6.08,0,0,1-4.62-1.94,6.9,6.9,0,0,1-1.83-4.93,6.74,6.74,0,0,1,1.69-4.7,5.76,5.76,0,0,1,8.3-.18A6.2,6.2,0,0,1,139.45,127.74Zm-10-1.11h8.37q-.73-3.78-4.09-3.78a4.09,4.09,0,0,0-2.75,1A4.85,4.85,0,0,0,129.45,126.63Z" transform="translate(-0.74)"/><path class="cls-1" d="M153.12,132.44v1.15a5.44,5.44,0,0,1-2.61,1.35.7.7,0,0,1-.66-.32,3.59,3.59,0,0,1-.27-1.29,6.56,6.56,0,0,1-4,1.6,3.47,3.47,0,0,1-2.47-1,3.07,3.07,0,0,1-1-2.32,3.74,3.74,0,0,1,2-3.32,11.75,11.75,0,0,1,5.58-1.4V125.3q0-2.64-2.87-2.64a6.62,6.62,0,0,0-3.95,1.64v-1.42a7.89,7.89,0,0,1,4.17-1.38,4.65,4.65,0,0,1,2.89.86,3,3,0,0,1,1.14,2.51v8q0,.66.31.66A5,5,0,0,0,153.12,132.44Zm-3.54-.31v-4a8,8,0,0,0-4.4.93,3,3,0,0,0-1.75,2.63,1.92,1.92,0,0,0,.73,1.52,2.73,2.73,0,0,0,1.83.62A5.41,5.41,0,0,0,149.58,132.13Z" transform="translate(-0.74)"/><path class="cls-1" d="M156.11,115.06v19.62h-1.39V115.06Z" transform="translate(-0.74)"/></g><line class="cls-3" y1="141.17" x2="155.74" y2="141.17"/><line class="cls-3" x1="86.54" y1="158.17" x2="86.54" y2="141.33"/><g class="cls-4"><path class="cls-1" d="M16.33,102.73H2.61L37.51,0h16L88.57,102.73H74.4L60.68,60.05,50.62,30.48c-2.29-6.71-3.81-12.8-5.33-18.75H45c-1.52,6.1-3.2,12.35-5.18,18.6L29.74,60.05Z" transform="translate(-0.74)"/><path class="cls-1" d="M58.91,0H75.83L93.36,49.69c4.27,12.65,7.77,23.93,10.36,34.6h.46c2.59-10.36,6.25-21.64,10.82-34.6L133.29,0h16.92l6.4,102.73h-13l-2.59-45.12c-.76-14.33-1.68-31.55-1.52-44.35h-.46c-3.51,12-7.77,24.84-13,39L108,102.12H97.93L81.32,53.19c-4.88-14.48-9-27.74-11.89-39.93h-.3Z" transform="translate(-0.74)"/></g></g></g></svg>