<svg id="Layer_1" data-name="Layer 1" xmlns="http://www.w3.org/2000/svg" viewBox="0 0 617.87 637.82"><defs><style>.cls-1{opacity:0.5;}.cls-2,.cls-3{fill:#fff;}.cls-3{stroke:#664573;stroke-miterlimit:10;stroke-width:1.31px;}</style></defs><title>AM_MTTH_Logo_SVG</title><g class="cls-1"><path class="cls-2" d="M197.27,641.94h11.1q6.37,0,9.76,2.86a9.64,9.64,0,0,1,3.39,7.79,9.84,9.84,0,0,1-3.42,7.9q-3.42,2.91-10,2.91h-7.7v18.83h-3.12Zm3.12,2.6V660.8h7.5q5,0,7.67-2.13a8.16,8.16,0,0,0,.06-11.94q-2.57-2.19-7.35-2.19Z" transform="translate(-195.58 -58)"/><path class="cls-2" d="M239.85,657.43v3.06q-4-2.71-7.27-2.71a6.33,6.33,0,0,0-4,1.29,3.92,3.92,0,0,0-1.64,3.19,3.69,3.69,0,0,0,1,2.49q1,1.14,5.51,2.88t5.89,3.62a6.87,6.87,0,0,1,1.38,4.18,6.56,6.56,0,0,1-2.51,5.21,9.28,9.28,0,0,1-6.2,2.12,15.1,15.1,0,0,1-8-2.42v-2.77a18.65,18.65,0,0,0,8.34,2.42,6.11,6.11,0,0,0,4-1.3,4.11,4.11,0,0,0,1.57-3.32,3.79,3.79,0,0,0-1-2.55q-1-1.17-5.54-3t-5.85-3.54a6.21,6.21,0,0,1-1.34-3.88,6.52,6.52,0,0,1,2.5-5.15,9.06,9.06,0,0,1,6.07-2.12A14.22,14.22,0,0,1,239.85,657.43Z" transform="translate(-195.58 -58)"/><path class="cls-2" d="M266.33,655.7l-19.86,40.12h-2.9l9.28-18.74L241.67,655.7h3l9.63,18.53,9.17-18.53Z" transform="translate(-195.58 -58)"/><path class="cls-2" d="M287.15,656.48v3.14a17.36,17.36,0,0,0-6.89-1.67A9.28,9.28,0,0,0,273,661a11.51,11.51,0,0,0-2.78,8,11.16,11.16,0,0,0,2.78,8,9.75,9.75,0,0,0,7.46,3,18.94,18.94,0,0,0,7.15-1.53v2.94a23,23,0,0,1-7.38,1.36,12.54,12.54,0,0,1-9.42-3.69,13.31,13.31,0,0,1-3.59-9.69,14.58,14.58,0,0,1,3.62-10.22,12,12,0,0,1,9.24-4A22.89,22.89,0,0,1,287.15,656.48Z" transform="translate(-195.58 -58)"/><path class="cls-2" d="M294.71,641.94v18.37h.12q3.32-5.13,8.74-5.13a9.34,9.34,0,0,1,7.18,2.88q2.68,2.88,2.68,7.93v16.24H310.6V667.12q0-9.17-7.21-9.17-5.16,0-8.68,5.68v18.6h-2.83V641.94Z" transform="translate(-195.58 -58)"/><path class="cls-2" d="M332,655.18a12.88,12.88,0,0,1,9.62,4,14.51,14.51,0,0,1,0,19.69,13.75,13.75,0,0,1-19.27,0,14.43,14.43,0,0,1,0-19.69A13,13,0,0,1,332,655.18Zm0,24.8a9.93,9.93,0,0,0,7.47-3.13,11.8,11.8,0,0,0,0-15.73,9.87,9.87,0,0,0-7.46-3.17,10,10,0,0,0-7.51,3.14,11.81,11.81,0,0,0,0,15.76A10,10,0,0,0,332,680Z" transform="translate(-195.58 -58)"/><path class="cls-2" d="M355.69,646.9v8.8h7.44V658h-7.44v15.78q0,3.81.62,5t3.33,1.2a11.73,11.73,0,0,0,4.85-1.3v2.71a12.51,12.51,0,0,1-5.48,1.36,6.53,6.53,0,0,1-4.38-1.5,5.17,5.17,0,0,1-1.76-4.15V658h-7.15V655.7h7.15v-6.32l1.93-2.48Z" transform="translate(-195.58 -58)"/><path class="cls-2" d="M370,641.94v18.37h.12q3.32-5.13,8.74-5.13a9.34,9.34,0,0,1,7.18,2.88q2.68,2.88,2.68,7.93v16.24h-2.83V667.12q0-9.17-7.21-9.17-5.16,0-8.68,5.68v18.6h-2.83V641.94Z" transform="translate(-195.58 -58)"/><path class="cls-2" d="M417.53,668H396.62a11.18,11.18,0,0,0-.09,1.38,10.1,10.1,0,0,0,3.17,7.53,10.39,10.39,0,0,0,7.5,3.09,15.46,15.46,0,0,0,9.86-4v3.2a16.29,16.29,0,0,1-10.21,3.52,12.48,12.48,0,0,1-9.49-4,14.18,14.18,0,0,1-3.75-10.12,13.83,13.83,0,0,1,3.46-9.65,11.82,11.82,0,0,1,17-.37Q417.53,662.07,417.53,668ZM397,665.71h17.19q-1.5-7.76-8.39-7.76a8.4,8.4,0,0,0-5.64,2A10,10,0,0,0,397,665.71Z" transform="translate(-195.58 -58)"/><path class="cls-2" d="M440.4,658.32,438.76,661q-3.32-3-5.34-3-4,0-8.51,7.61v16.67h-2.83V655.7h2.83v7H425q4.76-7.5,9.29-7.5Q436.91,655.18,440.4,658.32Z" transform="translate(-195.58 -58)"/><path class="cls-2" d="M463.19,677.62V680q-3.66,2.77-5.36,2.77a1.43,1.43,0,0,1-1.36-.65,7.36,7.36,0,0,1-.55-2.64,13.47,13.47,0,0,1-8.31,3.29,7.12,7.12,0,0,1-5.08-2,6.3,6.3,0,0,1-2.08-4.76,7.68,7.68,0,0,1,4-6.82q4-2.49,11.45-2.87V663q0-5.42-5.88-5.42-3.75,0-8.1,3.37V658a16.21,16.21,0,0,1,8.57-2.83,9.55,9.55,0,0,1,5.94,1.77,6.07,6.07,0,0,1,2.34,5.15v16.53q0,1.36.63,1.36Q460.22,680,463.19,677.62Zm-7.27-.63v-8.28a16.33,16.33,0,0,0-9,1.92q-3.59,2.12-3.59,5.41a3.93,3.93,0,0,0,1.5,3.12,5.61,5.61,0,0,0,3.75,1.27Q452.17,680.42,455.92,677Z" transform="translate(-195.58 -58)"/><path class="cls-2" d="M468.9,655.7v1.5a17.64,17.64,0,0,1,8-2,12.42,12.42,0,0,1,9.37,3.89,14.67,14.67,0,0,1-.12,19.66,12.46,12.46,0,0,1-9.37,4,17.76,17.76,0,0,1-7.87-2v15.06h-2.83V655.7Zm0,4.21V678a15,15,0,0,0,7.33,2,10.3,10.3,0,0,0,7.7-3,10.76,10.76,0,0,0,2.94-7.87,10.93,10.93,0,0,0-3.12-8,10.6,10.6,0,0,0-7.87-3.16A14.48,14.48,0,0,0,468.9,659.91Z" transform="translate(-195.58 -58)"/><path class="cls-2" d="M515.11,655.7l-19.86,40.12h-2.9l9.28-18.74L490.45,655.7h3L503,674.23l9.17-18.53Z" transform="translate(-195.58 -58)"/><path class="cls-2" d="M597.46,644.8v3.4a30.48,30.48,0,0,0-14.36-3.89,16.93,16.93,0,0,0-12.55,5.1,17.41,17.41,0,0,0-5,12.75,17.07,17.07,0,0,0,5.08,12.72,17.7,17.7,0,0,0,13,5q6.58,0,14.33-4.12V679a30.34,30.34,0,0,1-14.28,3.78,21.23,21.23,0,0,1-15.33-5.9,20.65,20.65,0,0,1,.13-29.49,20.91,20.91,0,0,1,14.91-5.94A33.91,33.91,0,0,1,597.46,644.8Z" transform="translate(-195.58 -58)"/><path class="cls-2" d="M614.05,655.18a12.88,12.88,0,0,1,9.62,4,14.51,14.51,0,0,1,0,19.69,13.75,13.75,0,0,1-19.27,0,14.42,14.42,0,0,1,0-19.69A13,13,0,0,1,614.05,655.18Zm0,24.8a9.93,9.93,0,0,0,7.47-3.13,11.79,11.79,0,0,0,0-15.73,9.87,9.87,0,0,0-7.46-3.17,10,10,0,0,0-7.51,3.14,11.81,11.81,0,0,0,0,15.76A10,10,0,0,0,614.05,680Z" transform="translate(-195.58 -58)"/><path class="cls-2" d="M651.26,682.23v-4.38h-.12a12.47,12.47,0,0,1-3.79,3.78,9.79,9.79,0,0,1-4.95,1.13,9.63,9.63,0,0,1-7.07-2.77q-2.8-2.77-2.8-7.84V655.7h2.83v16.38a8,8,0,0,0,2,5.8,6.94,6.94,0,0,0,5.25,2.11,8.45,8.45,0,0,0,4.72-1.27,14.14,14.14,0,0,0,3.91-4.38V655.7h2.83v26.54Z" transform="translate(-195.58 -58)"/><path class="cls-2" d="M663.14,655.7v4.62h.12q3.32-5.13,8.74-5.13a9.34,9.34,0,0,1,7.18,2.88q2.68,2.88,2.68,8v16.18H679V667.12q0-9.17-7.21-9.17-5.28,0-8.68,5.68v18.6h-2.83V655.7Z" transform="translate(-195.58 -58)"/><path class="cls-2" d="M702.69,657.43v3.06q-4-2.71-7.27-2.71a6.33,6.33,0,0,0-4,1.29,3.92,3.92,0,0,0-1.64,3.19,3.69,3.69,0,0,0,1,2.49q1,1.14,5.51,2.88t5.89,3.62a6.88,6.88,0,0,1,1.38,4.18,6.56,6.56,0,0,1-2.51,5.21,9.28,9.28,0,0,1-6.2,2.12,15.1,15.1,0,0,1-8-2.42v-2.77a18.65,18.65,0,0,0,8.34,2.42,6.11,6.11,0,0,0,4-1.3,4.11,4.11,0,0,0,1.57-3.32,3.79,3.79,0,0,0-1-2.55q-1-1.17-5.54-3t-5.85-3.54a6.21,6.21,0,0,1-1.34-3.88,6.53,6.53,0,0,1,2.5-5.15,9.06,9.06,0,0,1,6.07-2.12A14.22,14.22,0,0,1,702.69,657.43Z" transform="translate(-195.58 -58)"/><path class="cls-2" d="M730.44,668H709.53a11.18,11.18,0,0,0-.09,1.38,10.1,10.1,0,0,0,3.17,7.53,10.4,10.4,0,0,0,7.5,3.09,15.46,15.46,0,0,0,9.86-4v3.2a16.29,16.29,0,0,1-10.21,3.52,12.48,12.48,0,0,1-9.49-4,14.18,14.18,0,0,1-3.75-10.12A13.83,13.83,0,0,1,710,659a11.82,11.82,0,0,1,17-.37Q730.44,662.07,730.44,668Zm-20.54-2.28h17.19q-1.5-7.76-8.39-7.76a8.4,8.4,0,0,0-5.64,2A10,10,0,0,0,709.9,665.71Z" transform="translate(-195.58 -58)"/><path class="cls-2" d="M738.26,641.94v40.29H735.4V641.94Z" transform="translate(-195.58 -58)"/><path class="cls-2" d="M748.18,641.94v40.29h-2.86V641.94Z" transform="translate(-195.58 -58)"/><path class="cls-2" d="M758.1,641.94v4.85h-2.86v-4.85Zm0,13.76v26.54h-2.86V655.7Z" transform="translate(-195.58 -58)"/><path class="cls-2" d="M767.54,655.7v4.62h.12q3.32-5.13,8.74-5.13a9.34,9.34,0,0,1,7.18,2.88q2.68,2.88,2.68,8v16.18h-2.83V667.12q0-9.17-7.21-9.17-5.28,0-8.68,5.68v18.6h-2.83V655.7Z" transform="translate(-195.58 -58)"/><path class="cls-2" d="M813.46,655.7V658h-6q3.66,3.35,3.66,7a8.65,8.65,0,0,1-1.43,5.25,8.52,8.52,0,0,1-3.4,2.81,34.58,34.58,0,0,1-5.26,1.73,11.63,11.63,0,0,0-4.12,1.6,2.27,2.27,0,0,0-.84,1.73,2.11,2.11,0,0,0,1.08,1.85q1.08.69,6.72,1t7.6,2.16a6.86,6.86,0,0,1-1.18,10.57q-3.14,2.06-8.74,2.06t-8.6-1.95a5.9,5.9,0,0,1-3-5.15q0-5.19,7.73-6.43v-.12q-4.3-1-4.3-3.78t5.31-4.33V674a9.88,9.88,0,0,1-5.29-3.45,9.18,9.18,0,0,1,1.11-12.17q2.91-2.64,8.37-2.64Zm-11.77,37.76a13.06,13.06,0,0,0,6.56-1.41,4.21,4.21,0,0,0,2.44-3.72q0-4.67-8.45-4.67-9.63,0-9.63,4.9T801.69,693.45Zm-.4-21.26a7.14,7.14,0,0,0,7.1-7.1,6.74,6.74,0,0,0-2.09-5,7,7,0,0,0-5.06-2.06,6.75,6.75,0,0,0-5,2,6.68,6.68,0,0,0-2,4.9,7,7,0,0,0,2,5.1A6.7,6.7,0,0,0,801.28,672.2Z" transform="translate(-195.58 -58)"/><path class="cls-2" d="M240,548.4l29.44-36h6.06v77.5h-6V521.17L239.93,557.4l-29.6-36.23v68.74h-6v-77.5h6Z" transform="translate(-195.58 -58)"/><path class="cls-2" d="M327.84,538.87,289.64,616h-5.57l17.85-36-21.51-41.12h5.71l18.52,35.63,17.64-35.63Z" transform="translate(-195.58 -58)"/><path class="cls-2" d="M377.87,512.41v5H348.8v72.51h-6V517.4H313.69v-5Z" transform="translate(-195.58 -58)"/><path class="cls-2" d="M389.53,512.41v9.32H384v-9.32Zm0,26.46v51H384v-51Z" transform="translate(-195.58 -58)"/><path class="cls-2" d="M405.17,538.87v9h.22q6.21-10,16.25-10,11.7,0,16.48,12.26,7.21-12.26,17.75-12.26a16.11,16.11,0,0,1,12.82,5.66q4.88,5.66,4.88,15v31.34h-5.44V561q0-8.27-3.5-13a11.49,11.49,0,0,0-9.82-4.74,12.66,12.66,0,0,0-8.21,2.83,34.07,34.07,0,0,0-7.21,9.1v34.78h-5.49V560.84q0-8.49-3.63-13.06a11.79,11.79,0,0,0-9.74-4.58q-8.88,0-15.37,10.93v35.78h-5.44v-51Z" transform="translate(-195.58 -58)"/><path class="cls-2" d="M526.51,562.5H486.29a21.47,21.47,0,0,0-.17,2.66,19.43,19.43,0,0,0,6.1,14.48,20,20,0,0,0,14.42,5.94q9.71,0,19-7.6v6.16A31.33,31.33,0,0,1,506,590.91a24,24,0,0,1-18.25-7.66q-7.21-7.66-7.21-19.47,0-11.21,6.66-18.56A22.74,22.74,0,0,1,520,544.5Q526.51,551.13,526.51,562.5ZM487,558.12h33.06q-2.89-14.92-16.14-14.92a16.16,16.16,0,0,0-10.85,3.91A19.15,19.15,0,0,0,487,558.12Z" transform="translate(-195.58 -58)"/><path class="cls-2" d="M578.87,512.41v5H549.8v72.51h-6V517.4H514.68v-5Z" transform="translate(-195.58 -58)"/><path class="cls-2" d="M585.16,537.87a24.78,24.78,0,0,1,18.5,7.6,27.9,27.9,0,0,1,0,37.86,26.46,26.46,0,0,1-37.06,0,27.75,27.75,0,0,1,0-37.86A25,25,0,0,1,585.16,537.87Zm0,47.71a19.09,19.09,0,0,0,14.37-6,22.68,22.68,0,0,0,0-30.26,19,19,0,0,0-14.34-6.1,19.2,19.2,0,0,0-14.45,6,22.72,22.72,0,0,0,0,30.32A19.24,19.24,0,0,0,585.16,585.58Z" transform="translate(-195.58 -58)"/><path class="cls-2" d="M688.44,512.41v77.5h-6V553.18H630.69v36.73h-6v-77.5h6v35.78h51.71V512.41Z" transform="translate(-195.58 -58)"/><path class="cls-2" d="M743.42,562.5H703.2a21.57,21.57,0,0,0-.17,2.66,19.43,19.43,0,0,0,6.1,14.48,20,20,0,0,0,14.42,5.94q9.71,0,19-7.6v6.16a31.33,31.33,0,0,1-19.64,6.77,24,24,0,0,1-18.25-7.66q-7.21-7.66-7.21-19.47,0-11.21,6.66-18.56a22.74,22.74,0,0,1,32.79-.72Q743.42,551.13,743.42,562.5Zm-39.5-4.38H737q-2.89-14.92-16.14-14.92A16.15,16.15,0,0,0,710,547.11,19.15,19.15,0,0,0,703.92,558.12Z" transform="translate(-195.58 -58)"/><path class="cls-2" d="M797.4,581v4.55q-7,5.33-10.32,5.33a2.75,2.75,0,0,1-2.61-1.25,14.15,14.15,0,0,1-1.05-5.08q-8,6.33-16,6.33a13.69,13.69,0,0,1-9.76-3.77,12.12,12.12,0,0,1-4-9.15q0-8.32,7.71-13.12t22-5.52v-6.49q0-10.43-11.32-10.43-7.21,0-15.59,6.49v-5.6q8.65-5.44,16.48-5.44a18.37,18.37,0,0,1,11.43,3.41q4.49,3.41,4.49,9.9V583q0,2.61,1.22,2.61Q791.68,585.58,797.4,581Zm-14-1.22V563.89q-10.48-.39-17.39,3.69T759.12,578a7.56,7.56,0,0,0,2.88,6,10.78,10.78,0,0,0,7.21,2.44Q776.21,586.42,783.42,579.81Z" transform="translate(-195.58 -58)"/><path class="cls-2" d="M809.22,512.41v77.5h-5.49v-77.5Z" transform="translate(-195.58 -58)"/><line class="cls-3" y1="557.55" x2="615.07" y2="557.55"/><line class="cls-3" x1="341.77" y1="624.7" x2="341.77" y2="558.17"/><path class="cls-2" d="M257.13,463.73H203L340.8,58H404L542.46,463.73h-56L432.3,295.17,392.57,178.39c-9-26.49-15-50.57-21.07-74h-1.2c-6,24.08-12.64,48.76-20.47,73.44L310.1,295.17Z" transform="translate(-195.58 -58)"/><path class="cls-2" d="M425.33,58h66.82l69.23,196.24c16.85,50,30.7,94.51,40.93,136.65h1.81c10.23-40.93,24.68-85.48,42.74-136.65L719.08,58H785.9l25.28,405.73H760L749.79,285.54c-3-56.58-6.62-124.61-6-175.17H742c-13.85,47.56-30.7,98.12-51.17,154.1L619.16,461.32H579.43L513.81,268.09c-19.26-57.19-35.52-109.56-47-157.71h-1.2Z" transform="translate(-195.58 -58)"/></g></svg>